# xmcd CD database file
#
# Track frame offsets:
#	150
#	15061
#	34525
#	51638
#	69117
#	83374
#	115646
#	160634
#	196981
#	233556
#	269899
#	309156
#
# Disc length: 4589 seconds
#
# Revision: 0
# Processed by: cddbd v1.5.2PL0 Copyright (c) Steve Scherf et al.
# Submitted via: CDex 2.12
#
DISCID=8211eb0c
DTITLE=Musica Jazz (Magazine) - Wardell Gray and Hampton Hawes - Live at the Haig 1952
DYEAR=2018
DGENRE=Jazz
TTITLE0=Jumpin' Jacque
TTITLE1=Don't get around anymore
TTITLE2=I hear music
TTITLE3=It's you or no one
TTITLE4=Buzzy
TTITLE5=Bernie's tune
TTITLE6=The squirreel
TTITLE7=Pennies from Heaven
TTITLE8=Donna Lee
TTITLE9=Taking a chance on love
TTITLE10=Jackye
TTITLE11=Get happy
EXTD=YEAR: 2018
EXTT0=
EXTT1=
EXTT2=
EXTT3=
EXTT4=
EXTT5=
EXTT6=
EXTT7=
EXTT8=
EXTT9=
EXTT10=
EXTT11=
PLAYORDER=
